<svg t="1693923808484" class="icon" viewBox="0 0 1024 1024" version="1.1" xmlns="http://www.w3.org/2000/svg" p-id="2060"
     width="200" height="200">
    <path
            d="M497 385.56L393.83 265.65l-106.3 119.91h12.23v107.89h-10v37.4h17.35l-2.84 56.22 178.38 64.14-5.39-120.36h17.63v-37.4H485V385.56z m-46.5 107.89h-38.76V425H373v68.45h-38.79V385.56H450.5zM302.94 615.85l-2.04 34.69 184.96 66.41-1.36-30.83-181.56-70.27zM297.95 706.97l190.63 68.46-1.36-30.6-187.46-72.76-1.81 34.9zM295 763.42l196.53 70.26-1.36-30.37-193.12-74.8-2.05 34.91zM801.73 838.87c55.39 0 100.42-45.19 100.42-100.71s-45-100.71-100.42-100.71-100.5 45.2-100.5 100.71 45.11 100.71 100.5 100.71z m43.78 9.74c-0.34 0-0.59 0.21-0.92 0.16s-0.67 0.17-1.05 0.17h-75.73c-0.38 0-0.75-0.17-1.09-0.17s-0.83-0.08-1.12-0.08c-69 1.13-125 57.65-125 127v7.56c0 36.63 56.39 36.55 127.23 36.55h75.73c70.85 0 126.66 0.08 126.66-36.55v-7.56c-0.02-69.35-55.71-126-124.71-127.08z"
            fill="#13227a" p-id="2061"></path>
    <path
            d="M1023.06 493.68C1013.26 212.33 777.36-7.86 496 1.72S-5.94 247.3 3.66 528.8s245.58 501.93 527.08 492.34a513.09 513.09 0 0 0 52.57-4.56l14.32-77.9a96.79 96.79 0 0 1 2.19-14.44 424.21 424.21 0 0 1-69 8.33q-18.11 0.69-35.91-0.14l-1.84-63.16-199.65-77.52-4.08 75.69c-112.65-71.64-189.41-195.59-195-339.1-9-232.17 172-427.62 404.19-436.54h0.6a418.73 418.73 0 0 1 233.79 60.68L513.06 393.72 832.9 236.94a421.26 421.26 0 0 1 52.45 76L525.3 431.57l399.46-13.75a423.58 423.58 0 0 1 10.17 74.48l-396-26.05 386.6 136.94q-3.6 16.26-8.41 32c-0.12 0 82.88 28 83.08 28.21a509.45 509.45 0 0 0 22.86-169.72z"
            fill="#13227a" p-id="2062"></path>
</svg>
