<svg viewBox="0 0 1024 1024" version="1.1" xmlns="http://www.w3.org/2000/svg" p-id="1320" width="200" height="200">
  <path
    d="M147.264 647.296V220.928c0-49.536 40.128-89.728 89.6-89.728H793.6c49.536 0 89.728 40.192 89.728 89.728v426.368c0 49.536-40.128 89.728-89.6 89.728h-145.216a47.04 47.04 0 0 0-28.16 9.408l-194.56 145.792a3.392 3.392 0 0 1-5.12-1.984l-26.752-116.672a47.04 47.04 0 0 0-45.824-36.544H236.992a89.728 89.728 0 0 1-89.728-89.728zM236.864 64A156.928 156.928 0 0 0 80 220.928l0.064 426.368a156.928 156.928 0 0 0 156.928 156.928h94.976l23.232 101.312 0.064 0.448a70.592 70.592 0 0 0 109.696 40.832l190.208-142.592H793.6a156.928 156.928 0 0 0 156.928-156.928l-0.064-426.368A156.928 156.928 0 0 0 793.536 64H236.928z m69.44 442.496a65.344 65.344 0 1 0 0-130.752 65.344 65.344 0 0 0 0 130.752z m268.8-65.344a65.344 65.344 0 1 1-130.752 0 65.344 65.344 0 0 1 130.752 0z m138.368 65.344a65.344 65.344 0 1 0 0-130.752 65.344 65.344 0 0 0 0 130.752z"
    p-id="1321"></path>
</svg>