<svg viewBox="0 0 1024 1024" version="1.1" xmlns="http://www.w3.org/2000/svg" p-id="1534">
  <path
    d="M668.928 166.912c-20.48-53.504-47.9744-84.7872-82.0224-94.9248-33.5872-10.0352-61.952 4.096-76.032 13.9776-27.5456 19.3536-41.216 49.664-50.0224 74.1376-3.3792 9.3184-6.4512 19.0976-9.216 27.9552l-2.6624 8.3968a227.8912 227.8912 0 0 1-10.3936 27.9552c-25.344 52.9408-47.4112 84.5312-66.7648 104.96-18.944 19.968-36.4544 30.464-55.1936 39.7824a45.3632 45.3632 0 0 0-25.088 40.5504l-0.1024 480.7168c0 24.9344 20.2752 45.2096 45.2096 45.2096h423.0656c21.7088 0 38.144-6.912 50.0224-16.9984a72.192 72.192 0 0 0 14.4896-16.896l0.2048-0.2048 0.0512-0.1536 0.8192-1.024 1.2288-1.8944c39.424-63.7952 66.7648-114.688 88.2176-175.616 24.4224-69.4784 36.8128-129.6896 42.0352-176.64 5.12-45.6704 3.7888-81.664-1.5872-101.376a77.9776 77.9776 0 0 0-45.568-52.3264 116.5824 116.5824 0 0 0-45.4144-8.6016l-192.8192-2.6624c28.1088-115.0976 10.0864-181.6064-2.4576-214.3744zM64.0512 413.9008a45.2096 45.2096 0 0 1 45.1584-47.36H176.128c24.9344 0 45.2096 20.2752 45.2096 45.2096v480.6144a45.2096 45.2096 0 0 1-45.2096 45.2096h-44.288a45.2096 45.2096 0 0 1-45.1584-43.0592L64 413.952z"
    p-id="1535"></path>
</svg>