<svg
        t="1650360973068"
        viewBox="0 0 1024 1024"
        version="1.1"
        xmlns="http://www.w3.org/2000/svg"
        p-id="1168"
        width="200"
        height="200"
>
    <path fill="currentColor"
          d="M547.968 138.88c6.656-4.672 14.08-6.976 20.48-5.056 6.08 1.792 22.848 10.752 40.192 56.128 8.576 22.4 27.264 81.536-5.632 197.504a45.44 45.44 0 0 0 42.88 57.984l217.6 3.008h0.448a53.12 53.12 0 0 1 20.096 3.328 16.256 16.256 0 0 1 5.568 3.648 14.464 14.464 0 0 1 3.264 6.4c2.176 7.808 4.608 33.984-0.256 77.248-4.672 41.984-15.936 97.408-38.784 162.368-19.136 54.336-43.52 100.48-81.472 161.792a56.384 56.384 0 0 0-1.664 2.496l-0.128 0.128-1.408 2.112a7.872 7.872 0 0 1-1.28 1.472 3.84 3.84 0 0 1-1.28 0.64 20.48 20.48 0 0 1-6.848 0.96H356.032V421.44c19.712-10.624 40.704-24.576 62.592-47.616 25.472-26.88 51.008-64.768 78.208-121.6 5.568-11.584 9.856-24.384 13.632-36.032l3.072-9.856c2.688-8.448 5.184-16.384 8.064-24.32 8.064-22.4 16.128-36.032 26.368-43.136z m120.96 27.968c-20.48-53.44-48-84.736-81.984-94.912-33.6-9.984-61.952 4.16-76.032 14.08-27.584 19.264-41.28 49.6-50.048 74.048-3.392 9.344-6.464 19.2-9.216 27.968l-2.688 8.448a227.84 227.84 0 0 1-10.432 27.904c-25.28 52.928-47.36 84.544-66.752 104.96-18.944 19.968-36.48 30.464-55.168 39.808a45.376 45.376 0 0 0-25.088 40.576l-0.064 480.64c0 24.96 20.224 45.248 45.184 45.248h423.04c21.76 0 38.144-6.912 50.048-16.96a71.808 71.808 0 0 0 14.528-16.896l0.128-0.256 0.128-0.128 0.832-0.96 1.152-1.92c39.424-63.872 66.816-114.688 88.256-175.68a810.24 810.24 0 0 0 42.048-176.64c5.12-45.632 3.776-81.664-1.6-101.376a77.952 77.952 0 0 0-45.568-52.288 116.544 116.544 0 0 0-45.44-8.64l-192.768-2.688c28.096-115.072 10.048-181.568-2.496-214.336z m-604.864 247.04a45.184 45.184 0 0 1 45.12-47.296h67.008c24.96 0 45.184 20.288 45.184 45.248v480.64c0 24.96-20.224 45.12-45.184 45.12H131.84a45.184 45.184 0 0 1-45.12-43.072l-22.656-480.64z"
          p-id="1169"
    ></path>
</svg>
