<svg width="100%" height="100%" id="svg" viewBox="0 0 1440 590" xmlns="http://www.w3.org/2000/svg"
     class="transition duration-300 ease-in-out delay-150">
    <defs>
        <linearGradient id="gradient" x1="0%" y1="50%" x2="100%" y2="50%">
            <stop offset="5%" stop-color="#F78DA7"></stop>
            <stop offset="95%" stop-color="#8ED1FC"></stop>
        </linearGradient>
    </defs>
    <path d="M 0,600 C 0,600 0,200 0,200 C 107.56937799043064,181.55980861244018 215.13875598086128,163.1196172248804 322,169 C 428.8612440191387,174.8803827751196 535.0143540669856,205.08133971291866 610,194 C 684.9856459330144,182.91866028708134 728.8038277511963,130.555023923445 826,129 C 923.1961722488037,127.44497607655501 1073.7703349282297,176.69856459330146 1185,197 C 1296.2296650717703,217.30143540669854 1368.1148325358852,208.65071770334927 1440,200 C 1440,200 1440,600 1440,600 Z"
          stroke="none" stroke-width="0" fill="url(#gradient)" fill-opacity="0.53"
          class="transition-all duration-300 ease-in-out delay-150 path-0" transform="rotate(-180 720 300)"></path>
    <defs>
        <linearGradient id="gradient" x1="0%" y1="50%" x2="100%" y2="50%">
            <stop offset="5%" stop-color="#F78DA7"></stop>
            <stop offset="95%" stop-color="#8ED1FC"></stop>
        </linearGradient>
    </defs>
    <path d="M 0,600 C 0,600 0,400 0,400 C 66.25837320574163,383.72248803827756 132.51674641148327,367.44497607655506 243,351 C 353.48325358851673,334.55502392344494 508.1913875598086,317.9425837320574 628,344 C 747.8086124401914,370.0574162679426 832.7177033492823,438.7846889952153 904,445 C 975.2822966507177,451.2153110047847 1032.9377990430623,394.91866028708137 1120,377 C 1207.0622009569377,359.08133971291863 1323.531100478469,379.5406698564593 1440,400 C 1440,400 1440,600 1440,600 Z"
          stroke="none" stroke-width="0" fill="url(#gradient)" fill-opacity="1"
          class="transition-all duration-300 ease-in-out delay-150 path-1" transform="rotate(-180 720 300)"></path>
</svg>